# xmcd
#
# Track frame offsets:
#	150
#	15199
#	31773
#	61365
#
# Disc length: 992 seconds
#
# Revision: 0
# Processed by: cddbd v1.4PL0 Copyright (c) Steve Scherf et al.
# Submitted via: audiograbber 1.80.04
#
DISCID=2003de04
DTITLE=HHB International - Country Roads (Single)
DYEAR=2001
DGENRE=Country
TTITLE0=Country Roads
TTITLE1=Merry X-Mas Everybody
TTITLE2=HHB-Apres-Ski PartyMix
TTITLE3=Ding Ding
EXTD=
EXTT0=
EXTT1=
EXTT2=A) I Will Survive - LaLaLa\nB) Can't Take My Eyes Of You\nC) Na Na Hey He
EXTT2=y Kiss Him Goodbye\nD) Que Sera Sera\nE) Country Roads
EXTT3=
PLAYORDER=
